<svg xmlns="http://www.w3.org/2000/svg" width="725" height="550" viewBox="0 0 725 550"><defs><style>.a{opacity:0.25;}</style></defs><g transform="translate(-163.383 -76.047)"><g class="a" transform="translate(163.383 76.047)"><path d="M517.325,512.723H323.4a3.875,3.875,0,0,0-3.676,2.638L283.56,623.409a3.873,3.873,0,0,1-3.676,2.638H167.261a3.861,3.861,0,0,1-3.631-5.206L366.317,78.56a3.876,3.876,0,0,1,3.632-2.513H470.011a3.876,3.876,0,0,1,3.63,2.506L677.45,620.835a3.861,3.861,0,0,1-3.629,5.212H561.2a3.873,3.873,0,0,1-3.672-2.628L521,515.35A3.873,3.873,0,0,0,517.325,512.723ZM356.7,420.93H484a3.861,3.861,0,0,0,3.673-5.087l-64-189.83a3.88,3.88,0,0,0-7.351.012l-63.3,189.83A3.861,3.861,0,0,0,356.7,420.93Z" transform="translate(-163.383 -76.047)"/></g><g class="a" transform="translate(391.727 77.987)"><path d="M644.7,477.13,764.626,80.745A3.873,3.873,0,0,1,768.336,78H885.993a3.861,3.861,0,0,1,3.658,5.128L701.106,622.477a3.873,3.873,0,0,1-3.659,2.59H584.892a3.872,3.872,0,0,1-3.66-2.595L393.43,83.123A3.861,3.861,0,0,1,397.09,78H514.372a3.871,3.871,0,0,1,3.71,2.751l119.2,396.372A3.878,3.878,0,0,0,644.7,477.13Z" transform="translate(-393.213 -78)"/></g></g></svg>